<svg xmlns="http://www.w3.org/2000/svg" version="1.1" style="display: block;" viewBox="0 0 2048 2048" width="1024" height="1024" preserveAspectRatio="none">
<path xmlns="http://www.w3.org/2000/svg" transform="translate(0,0)" fill="rgb(245,245,243)" d="M 1714.33 1303.33 C 1763.46 1296.57 1808.76 1330.95 1815.47 1380.09 C 1822.18 1429.23 1787.74 1474.5 1738.59 1481.15 C 1689.52 1487.79 1644.34 1453.42 1637.65 1404.36 C 1630.95 1355.29 1665.27 1310.07 1714.33 1303.33 z"/>

<path xmlns="http://www.w3.org/2000/svg" transform="translate(0,0)" fill="rgb(42,42,40)" d="M 1718.12 1334.58 C 1749.73 1329.81 1779.22 1351.58 1783.97 1383.2 C 1788.72 1414.82 1766.92 1444.3 1735.3 1449.02 C 1703.71 1453.74 1674.27 1431.97 1669.53 1400.39 C 1664.79 1368.8 1686.53 1339.34 1718.12 1334.58 z"/>

<path xmlns="http://www.w3.org/2000/svg" transform="translate(0,0)" fill="rgb(245,245,243)" d="M 1036.17 1305.14 C 1058.38 1305.06 1107.76 1303.06 1126.45 1308.98 C 1139.07 1312.84 1149.51 1321.81 1155.23 1333.71 C 1164.96 1353.46 1163.41 1381.27 1146.87 1396.86 C 1139.75 1403.57 1134.27 1405.81 1125.54 1409.63 C 1140.53 1432.77 1155.08 1456.19 1169.18 1479.88 L 1135.03 1480.09 C 1132.12 1478.54 1097.07 1421.21 1092.41 1413.71 C 1084.33 1413.89 1075.97 1413.82 1067.87 1413.86 L 1067.93 1480.01 L 1036.14 1479.98 C 1035.22 1423.05 1035.79 1362.17 1036.17 1305.14 z"/>

<path xmlns="http://www.w3.org/2000/svg" transform="translate(0,0)" fill="rgb(42,42,40)" d="M 1067.89 1332.82 C 1089.56 1333.12 1124.32 1326.6 1127.53 1356.68 C 1128.46 1365.4 1126.95 1370.71 1121.55 1377.65 C 1109.28 1387.68 1084.02 1385.02 1067.88 1384.92 L 1067.89 1332.82 z"/>

<path xmlns="http://www.w3.org/2000/svg" transform="translate(0,0)" fill="rgb(245,245,243)" d="M 670.045 1305.17 L 710.408 1305 C 732.985 1304.93 760.182 1302.82 778.431 1319.03 C 800.653 1338.77 800.993 1379.06 780.7 1400.35 C 766.335 1415.43 749.919 1417 730.34 1417.57 C 720.85 1417.77 711.356 1417.72 701.869 1417.41 L 701.866 1480 L 669.987 1480.05 L 670.045 1305.17 z"/>

<path xmlns="http://www.w3.org/2000/svg" transform="translate(0,0)" fill="rgb(42,42,40)" d="M 701.688 1332.85 C 711.136 1332.87 721.35 1333.04 730.746 1332.77 C 758.641 1331.97 771.562 1359.03 755.036 1381.69 C 738.964 1391.46 720.722 1389.04 701.978 1388.9 L 701.688 1332.85 z"/>

<path xmlns="http://www.w3.org/2000/svg" transform="translate(0,0)" fill="rgb(245,245,243)" d="M 492.773 1305.13 C 519.311 1305.02 554.892 1302.76 580.284 1308.21 C 619.404 1316.61 630.191 1374.46 603.287 1401.1 C 589.484 1414.76 574.197 1417.09 555.722 1417.37 L 523.913 1417.36 L 523.938 1480.02 L 492.762 1479.97 L 492.773 1305.13 z"/>

<path xmlns="http://www.w3.org/2000/svg" transform="translate(0,0)" fill="rgb(42,42,40)" d="M 523.966 1332.76 C 544.455 1333.2 575.807 1326.93 583.423 1351.72 C 586.988 1363.33 585.347 1371.87 577.915 1381.34 C 565.066 1391.64 540.593 1389.02 524.029 1388.86 C 523.63 1370.54 523.959 1351.15 523.966 1332.76 z"/>

<path xmlns="http://www.w3.org/2000/svg" transform="translate(0,0)" fill="rgb(245,245,243)" d="M 344 1305.14 L 375.14 1305.04 C 398.222 1362.55 421.615 1423.29 445.61 1479.97 L 412.04 1480.09 C 406.21 1466.12 400.831 1451.97 395.913 1437.65 L 377.31 1437.76 L 324.182 1437.77 C 318.963 1451.78 314 1465.89 309.294 1480.08 L 274.848 1480.02 L 321.883 1362.11 C 329.099 1343.84 337.746 1323.58 344 1305.14 z"/>

<path xmlns="http://www.w3.org/2000/svg" transform="translate(0,0)" fill="rgb(42,42,40)" d="M 360.012 1347.53 C 363.311 1351.07 379.438 1399.61 382.331 1407.92 L 358.782 1408.01 L 337.45 1407.89 C 343.723 1388.05 352.555 1367.22 360.012 1347.53 z"/>

<path xmlns="http://www.w3.org/2000/svg" transform="translate(0,0)" fill="rgb(245,245,243)" d="M 884.786 1305.02 L 915.676 1305.07 C 923.139 1320.49 930.828 1344.11 937.481 1360.81 L 985.358 1480 L 951.343 1480.14 C 946.252 1465.86 940.641 1451.95 935.699 1437.52 L 916.768 1437.71 L 865.292 1437.67 L 849.122 1480.06 L 815.574 1480 C 835.099 1423.08 864.595 1364.08 884.786 1305.02 z"/>

<path xmlns="http://www.w3.org/2000/svg" transform="translate(0,0)" fill="rgb(42,42,40)" d="M 900.505 1347.77 C 904.54 1352.07 918.796 1398.7 921.952 1407.95 L 901.25 1408.01 L 877.842 1408 C 882.794 1391.6 894.099 1364.53 900.505 1347.77 z"/>

<path xmlns="http://www.w3.org/2000/svg" transform="translate(0,0)" fill="rgb(245,245,243)" d="M 1223.58 1305.07 L 1332.49 1305.2 L 1332.66 1333.04 L 1255.98 1332.88 L 1255.98 1375.92 L 1325.98 1375.88 L 1326.02 1403.96 C 1310.26 1403.91 1270.25 1402.81 1257.21 1404.38 C 1255.38 1406.83 1256.03 1407.01 1255.93 1410.75 L 1255.97 1450.91 L 1335.92 1450.91 L 1335.92 1479.95 L 1223.28 1480.08 C 1223.36 1423.41 1221.94 1361.26 1223.58 1305.07 z"/>

<path xmlns="http://www.w3.org/2000/svg" transform="translate(0,0)" fill="rgb(245,245,243)" d="M 1396.13 1305.23 C 1406.82 1305.16 1417.5 1305.21 1428.19 1305.39 C 1428.85 1353.1 1428.33 1402.12 1428.24 1449.91 L 1501.85 1449.88 C 1501.54 1459.77 1501.69 1470.06 1501.71 1479.98 L 1396.14 1480.03 L 1396.13 1305.23 z"/>

<path xmlns="http://www.w3.org/2000/svg" transform="translate(0,0)" fill="rgb(245,245,243)" d="M 1550.08 1305.18 L 1581.92 1305.16 L 1581.87 1479.98 L 1550.02 1480.02 L 1550.08 1305.18 z"/>
</svg>