<svg xmlns="http://www.w3.org/2000/svg" version="1.1" style="display: block;" viewBox="0 0 20 20" width="24" height="24" preserveAspectRatio="none">

<path xmlns="http://www.w3.org/2000/svg" transform="translate(0,0)" fill="rgb(245,245,243)" d="M 1020.78 364.772 L 1108.92 364.745 C 1151.45 447.063 1196.77 530.479 1240.62 612.159 L 1402.25 914.754 L 1479.57 1059.41 C 1491.62 1081.88 1510.54 1114.75 1520.72 1137.34 L 1432.72 1137.18 C 1419.68 1115.36 1402.97 1081.03 1390.53 1057.64 L 1303.07 893.548 L 1020.78 364.772 z"/>

<path xmlns="http://www.w3.org/2000/svg" transform="translate(0,0)" fill="rgb(245,245,243)" d="M 1000.95 427.531 C 1005.78 434.361 1012.86 447.403 1017.26 454.991 L 1046.51 505.326 C 1039.27 521.947 1020.66 553.622 1011.38 570.409 L 941.314 696.948 L 699.115 1137.78 L 658.852 1137.68 C 642.913 1137.64 626.974 1137.72 611.037 1137.93 C 621.493 1117.62 634.831 1094.66 645.951 1074.24 L 744.822 894.549 L 1000.95 427.531 z"/>

<path xmlns="http://www.w3.org/2000/svg" transform="translate(0,0)" fill="rgb(245,245,243)" d="M 1078.27 559.623 C 1081.45 563.878 1089.99 582.243 1092.69 587.837 C 1100.97 605.214 1109.4 622.517 1117.99 639.745 C 1106.72 658.18 1093.84 683.928 1082.99 703.548 L 1001.37 850.035 L 954.5 850.031 L 912.826 850.039 L 1003.71 686.602 C 1026.39 645.755 1052.41 598.746 1078.27 559.623 z"/>

<path xmlns="http://www.w3.org/2000/svg" transform="translate(0,0)" fill="rgb(245,245,243)" d="M 889.773 893.127 C 918.76 893.003 947.747 893.08 976.733 893.359 C 965.493 915.888 948.958 943.453 936.495 966.074 C 904.501 1022.82 873.418 1080.08 843.257 1137.83 C 814.479 1137.59 785.7 1137.6 756.922 1137.85 C 771.8 1106.91 792.959 1070.21 809.535 1039.66 C 835.923 990.62 862.669 941.775 889.773 893.127 z"/>

<path xmlns="http://www.w3.org/2000/svg" transform="translate(0,0)" fill="rgb(245,245,243)" d="M 1034.78 893.028 C 1104.37 893.886 1175.25 891.925 1244.64 893.412 L 1284.3 971.43 C 1269.68 972.001 1252.33 971.527 1237.5 971.49 L 988.955 971.709 L 1034.78 893.028 z"/>

<path xmlns="http://www.w3.org/2000/svg" transform="translate(0,0)" fill="rgb(245,245,243)" d="M 1139.78 690.405 C 1143.55 692.461 1168.23 746.491 1172.07 754.517 L 1218.78 850.022 L 1136.5 850.026 L 1055.93 850.01 C 1084.39 797.599 1109.86 742.179 1139.78 690.405 z"/>

</svg>